<svg xmlns="http://www.w3.org/2000/svg" width="1080" height="1080" viewBox="0 0 1080 1080">
	<defs>
		<linearGradient id="bg_gradient" x1="0%" y1="0%" x2="100%" y2="100%">
			<stop offset="0%" stop-color="#a5afb4" stop-opacity="1" />
			<stop offset="100%" stop-color="#f91ca6" stop-opacity="1" />
		</linearGradient>
	</defs>
	<rect x="0" y="0" width="100%" height="100%" fill="url(#bg_gradient)" />
	<g transform="matrix(1 0 0 1 579.9 740.8)">
		<g>
			<rect x="40" y="40" width="120" height="120" fill="none" stroke="#1c160d" stroke-linecap="round" stroke-linejoin="round" stroke-width="16" />
			<rect x="96" y="96" width="120" height="120" fill="none" stroke="#1c160d" stroke-linecap="round" stroke-linejoin="round" stroke-width="16" />
			<line x1="96" y1="96" x2="160" y2="160" fill="none" stroke="#1c160d" stroke-linecap="round" stroke-linejoin="round" stroke-width="16" />
		</g>
	</g>
	<g transform="matrix(0.8 0 0 0.8 795.9 978.1)">
		<g>
			<circle cx="96" cy="96" r="72" fill="none" stroke="#1c160d" stroke-linecap="round" stroke-linejoin="round" stroke-width="16" />
			<circle cx="160" cy="160" r="72" fill="none" stroke="#1c160d" stroke-linecap="round" stroke-linejoin="round" stroke-width="16" />
			<line x1="164.91" y1="116.91" x2="228.91" y2="180.91" fill="none" stroke="#1c160d" stroke-linecap="round" stroke-linejoin="round" stroke-width="16" />
			<line x1="146.91" y1="146.91" x2="210.91" y2="210.91" fill="none" stroke="#1c160d" stroke-linecap="round" stroke-linejoin="round" stroke-width="16" />
			<line x1="116.91" y1="164.91" x2="180.91" y2="228.91" fill="none" stroke="#1c160d" stroke-linecap="round" stroke-linejoin="round" stroke-width="16" />
			<line x1="75.09" y1="27.09" x2="139.09" y2="91.09" fill="none" stroke="#1c160d" stroke-linecap="round" stroke-linejoin="round" stroke-width="16" />
			<line x1="45.09" y1="45.09" x2="109.09" y2="109.09" fill="none" stroke="#1c160d" stroke-linecap="round" stroke-linejoin="round" stroke-width="16" />
			<line x1="27.08" y1="75.08" x2="91.08" y2="139.08" fill="none" stroke="#1c160d" stroke-linecap="round" stroke-linejoin="round" stroke-width="16" />
		</g>
	</g>
</svg>