<svg xmlns="http://www.w3.org/2000/svg" width="1080" height="1080" viewBox="0 0 1080 1080">
	<defs>
		<linearGradient id="bg_gradient" x1="0%" y1="0%" x2="100%" y2="100%">
			<stop offset="0%" stop-color="#a4adb6" stop-opacity="1" />
			<stop offset="100%" stop-color="#f91da7" stop-opacity="1" />
		</linearGradient>
		<mask id="content-mask-509888">
			<rect x="0" y="0" width="141" height="141" rx="26" ry="26" fill="white" />
		</mask>
	</defs>
	<rect x="0" y="0" width="100%" height="100%" fill="url(#bg_gradient)" />
	<g transform="matrix(0.8 0 0 0.8 799.9 975.4)">
		<g>
			<line x1="128" y1="16" x2="128" y2="240" fill="none" stroke="#0c0d0b" stroke-linecap="round" stroke-linejoin="round" stroke-width="16" />
			<path d="M160,160,128,128,192,208,160,160" fill="none" stroke="#0c0d0b" stroke-linecap="round" stroke-linejoin="round" stroke-width="16" />
			<path d="M96,96a32,32,0,0,1,64,0v56a56,56,0,0,1-64,0Z" fill="none" stroke="#0c0d0b" stroke-linecap="round" stroke-linejoin="round" stroke-width="16" />
		</g>
	</g>
	<g transform="matrix(1 0 0 1 584.9 737.1)">
		<g>
			<rect x="40" y="40" width="120" height="120" fill="none" stroke="#1e1a0c" stroke-linecap="round" stroke-linejoin="round" stroke-width="16" />
			<rect x="96" y="96" width="120" height="120" fill="none" stroke="#1e1a0c" stroke-linecap="round" stroke-linejoin="round" stroke-width="16" />
			<line x1="96" y1="96" x2="160" y2="160" fill="none" stroke="#1e1a0c" stroke-linecap="round" stroke-linejoin="round" stroke-width="16" />
		</g>
	</g>
</svg>