<svg xmlns="http://www.w3.org/2000/svg" width="1080" height="1080" viewBox="0 0 1080 1080">
	<rect x="0" y="0" width="100%" height="100%" fill="#5d3260" />
	<g transform="matrix(0.7 0 0 0.7 114.9 453.9)">
		<g>
			<line x1="128" y1="88" x2="96" y2="224" fill="none" stroke="#c9ced7" stroke-linecap="round" stroke-linejoin="round" stroke-width="16" />
			<path d="M66.7,152A80,80,0,1,1,216,112c0,44.18-32,72-64,72s-41.63-21.07-41.63-21.07" fill="none" stroke="#c9ced7" stroke-linecap="round" stroke-linejoin="round" stroke-width="16" />
		</g>
	</g>
	<g transform="matrix(0.6 0 0 0.6 790.1 616.5)">
		<g>
			<circle cx="60" cy="60" r="12" />
			<circle cx="128" cy="60" r="12" />
			<circle cx="196" cy="60" r="12" />
			<circle cx="60" cy="128" r="12" />
			<circle cx="128" cy="128" r="12" />
			<circle cx="196" cy="128" r="12" />
			<circle cx="60" cy="196" r="12" />
			<circle cx="128" cy="196" r="12" />
			<circle cx="196" cy="196" r="12" />
		</g>
	</g>
</svg>